<svg width="401" height="205" viewBox="0 0 401 205" fill="none" xmlns="http://www.w3.org/2000/svg">
<circle cx="102.5" cy="102.5" r="102" stroke="black"/>
<circle cx="112.403" cy="102.5" r="102" stroke="black"/>
<circle cx="123.297" cy="102.5" r="102" stroke="black"/>
<circle cx="133.2" cy="102.5" r="102" stroke="black"/>
<circle cx="143.104" cy="102.5" r="102" stroke="black"/>
<circle cx="153.998" cy="102.5" r="102" stroke="black"/>
<circle cx="163.901" cy="102.5" r="102" stroke="black"/>
<circle cx="173.804" cy="102.5" r="102" stroke="black"/>
<circle cx="184.698" cy="102.5" r="102" stroke="black"/>
<circle cx="194.602" cy="102.5" r="102" stroke="black"/>
<circle cx="205.495" cy="102.5" r="102" stroke="black"/>
<circle cx="215.398" cy="102.5" r="102" stroke="black"/>
<circle cx="225.302" cy="102.5" r="102" stroke="black"/>
<circle cx="236.196" cy="102.5" r="102" stroke="black"/>
<circle cx="246.099" cy="102.5" r="102" stroke="black"/>
<circle cx="256.002" cy="102.5" r="102" stroke="black"/>
<circle cx="266.896" cy="102.5" r="102" stroke="black"/>
<circle cx="276.8" cy="102.5" r="102" stroke="black"/>
<circle cx="286.703" cy="102.5" r="102" stroke="black"/>
<circle cx="297.597" cy="102.5" r="102" stroke="black"/>
</svg>
